<?xml version="1.0" encoding="utf-8"?>
<!-- Generator: Adobe Illustrator 25.4.1, SVG Export Plug-In . SVG Version: 6.00 Build 0)  -->
<svg version="1.1" id="Layer_1" xmlns="http://www.w3.org/2000/svg" xmlns:xlink="http://www.w3.org/1999/xlink" x="0px" y="0px"
	 viewBox="0 0 2000 682.45" style="enable-background:new 0 0 2000 682.45;" xml:space="preserve">
<style type="text/css">
	.st0{fill:#878787;}
	.st1{fill:#ACC912;}
	.st2{fill:#386489;}
	.st3{fill-rule:evenodd;clip-rule:evenodd;fill:#ACC912;}
	.st4{fill-rule:evenodd;clip-rule:evenodd;fill:#386489;}
</style>
<g>
	<path class="st0" d="M423.23,552.53c-26.23-4.9-57.77-8.43-92.12-10.38l-25.8,31.32c36.95,1.27,71.63,4.34,100.28,8.95
		c32.69,5.27,48.76,11.02,56.34,14.72c-7.58,3.71-23.65,9.45-56.34,14.72c-38.48,6.2-87.84,9.61-138.99,9.61c-0.28,0-0.55,0-0.83,0
		l0,0l0,0c-50.85-0.04-99.88-3.44-138.15-9.61c-32.69-5.27-48.76-11.02-56.34-14.72c7.58-3.71,23.65-9.45,56.34-14.72
		c28.02-4.51,61.83-7.54,97.88-8.86l-26.25-31.24c-33.24,1.99-63.78,5.44-89.28,10.21c-53.31,9.96-77.09,23.72-77.09,44.61
		s23.77,34.65,77.09,44.61c42,7.85,97.63,12.17,156.63,12.17s114.63-4.32,156.63-12.17c53.31-9.96,77.09-23.72,77.09-44.61
		S476.55,562.49,423.23,552.53z"/>
	<path class="st1" d="M476.15,194.45c-1.28-5.49-2.78-10.94-4.49-16.32c0-0.01,0-0.01,0-0.02c-6.16-24.16-19.99-44.85-19.99-44.85
		l-47.22,33.52l-137.66,97.73l-7.73-5.43l-23.19-16.29l-98.81-69.42l-7.41-5.2l-47.88-33.64c-4.73,8.06-8.94,16.44-12.62,25.13
		c-4.6,10.87-8.27,22.02-10.99,33.39c-3.92,16.33-5.89,33.12-5.89,50.2c0,6.15,0.26,12.26,0.77,18.32
		c0.2,2.09,5.79,57.89,44.51,113.59c1.25,1.61,2.53,3.2,3.83,4.78l12.33,16.04l1.34-1.02l50.92-38.82l0.11-0.08
		c-4.34-6.27-8.21-12-11.65-17.24c-0.99-1.65-2.13-3.4-3.44-5.28c-0.67-1.03-1.31-2.05-1.94-3.04l-2.12-3.02
		c-17.19-26.52-23.87-49.82-26.35-65.92c-0.75-6-1.14-12.11-1.14-18.31c0-1.61,0.03-3.2,0.08-4.8l83.32,61.65l33.04,24.45
		l31.13,23.03l32.1-23.5l32.02-23.44l83.39-61.05c0.02,0.64,0.03,1.29,0.03,1.93c0,8.93-1.68,47.7-29.25,89.66l-4.52,5.91
		l-12.31,16.11l2.07,1.58l50.25,38.31l0.46,0.35l3.45-4.44c1-1.08,1.98-2.17,2.96-3.27c46.57-58.24,53.13-116.81,53.98-135.97
		c0.06-2.16,0.1-4.33,0.1-6.51C481.72,226.66,479.85,210.34,476.15,194.45z"/>
	<path class="st2" d="M235.86,99v127.28l30.64,22.03l32.58-23.32V99.21c37.25,8.3,69.24,30.72,90.04,61.34l54.71-39.15
		c-7.37-10.67-15.71-20.69-25-29.98c-12.42-12.42-26.13-23.15-40.96-32.1c-8.71-5.26-17.82-9.9-27.28-13.9
		c-16.59-7.02-33.82-11.87-51.49-14.51c-10.55-1.58-21.27-2.38-32.1-2.38c-10.5,0-20.89,0.75-31.13,2.24
		c-18.02,2.61-35.57,7.51-52.47,14.65c-1.41,0.6-2.81,1.21-4.2,1.83c-23.89,10.71-45.42,25.55-64.05,44.17
		c-9.32,9.32-17.68,19.36-25.06,30.06l54.62,39.27C165.68,129.76,198.11,107.13,235.86,99z"/>
	<path class="st0" d="M358.03,367.83l-68.78,89.01l-26.75,35l-25.25-35.9l-40.1-57.02c0,0,0,0,0,0
		c-6.83-9.06-17.55-23.35-23.13-31.08l-47.22,35.99l-4.47,3.41L265.77,593.9l144.92-185.93l-3.29-2.51L358.03,367.83z"/>
	<polygon class="st3" points="1565.5,312.1 1469.78,132.52 1530,132.52 1600.87,268.16 1673.32,132.52 1734.2,132.52 1634.8,312.1 	
		"/>
	<polygon class="st2" points="1563.69,532.94 1512.12,482.43 1460.56,532.94 1381.24,532.94 1472.46,443.58 1381.24,354.23 
		1460.56,354.23 1512.12,404.74 1563.69,354.23 1643.02,354.23 1551.79,443.58 1643.02,532.94 	"/>
	<path class="st3" d="M1072.52,130.77c43.06,0,69.76,0.92,80.11,2.76c14.91,2.72,25.78,8.19,32.62,16.42
		c6.58,7.81,10.74,18.32,12.49,31.55c1.05,7.54,1.58,22.08,1.58,43.64c0,26.64-2.28,45.13-6.84,55.46
		c-4.47,10.08-10.83,17.39-19.07,21.95c-6.66,3.77-13.59,6.38-20.78,7.82c-7.19,1.45-17.8,2.39-31.84,2.83
		c-12.62,0.44-27.53,0.65-44.72,0.65c-39.81,0-64.89-0.96-75.24-2.89c-14.02-2.63-24.37-7.41-31.04-14.33
		c-6.57-6.92-11.09-16.74-13.55-29.44c-1.49-7.8-2.23-23.14-2.23-46c0-15.16,0.22-25.74,0.66-31.74c0.44-6,1.49-11.98,3.16-17.94
		c3.24-12.27,9.38-21.51,18.41-27.73c9.65-6.57,25.87-10.6,48.67-12.09C1034.55,131.07,1050.42,130.77,1072.52,130.77z
		 M1077.07,174.65c-22.36,0-37,0.53-43.93,1.57c-10.43,1.58-17.05,5.51-19.85,11.8c-2.54,5.42-3.81,16.52-3.81,33.3
		c0,17.92,1.23,29.5,3.68,34.75c3.16,6.81,10.3,11.01,21.44,12.58c6.31,0.88,19.99,1.31,41.03,1.31c26.39,0,42.82-0.79,49.31-2.36
		c7.45-1.93,12.54-5.33,15.25-10.23c2.28-4.02,3.72-10.14,4.34-18.36c0.27-3.84,0.4-10.09,0.4-18.74c0-17.13-1.23-28.23-3.68-33.3
		c-1.58-3.23-3.64-5.55-6.18-6.94c-4.74-2.54-10.74-4.03-18.02-4.46C1107.05,174.96,1093.73,174.65,1077.07,174.65z"/>
	<path class="st3" d="M1341.55,130.77c43.06,0,69.76,0.92,80.11,2.76c14.91,2.72,25.78,8.19,32.62,16.42
		c6.57,7.81,10.74,18.32,12.49,31.55c1.05,7.54,1.58,22.08,1.58,43.64c0,26.64-2.28,45.13-6.84,55.46
		c-4.47,10.08-10.83,17.39-19.07,21.95c-6.66,3.77-13.59,6.38-20.78,7.82c-7.19,1.45-17.8,2.39-31.84,2.83
		c-12.62,0.44-27.53,0.65-44.72,0.65c-39.81,0-64.89-0.96-75.24-2.89c-14.02-2.63-24.37-7.41-31.04-14.33
		c-6.57-6.92-11.09-16.74-13.55-29.44c-1.49-7.8-2.23-23.14-2.23-46c0-15.16,0.22-25.74,0.66-31.74c0.44-6,1.49-11.98,3.16-17.94
		c3.24-12.27,9.38-21.51,18.41-27.73c9.65-6.57,25.87-10.6,48.67-12.09C1303.58,131.07,1319.45,130.77,1341.55,130.77z
		 M1346.1,174.65c-22.36,0-37,0.53-43.93,1.57c-10.43,1.58-17.05,5.51-19.85,11.8c-2.54,5.42-3.81,16.52-3.81,33.3
		c0,17.92,1.23,29.5,3.68,34.75c3.16,6.81,10.3,11.01,21.44,12.58c6.31,0.88,19.99,1.31,41.03,1.31c26.39,0,42.82-0.79,49.31-2.36
		c7.45-1.93,12.54-5.33,15.25-10.23c2.28-4.02,3.72-10.14,4.34-18.36c0.27-3.84,0.4-10.09,0.4-18.74c0-17.13-1.23-28.23-3.68-33.3
		c-1.58-3.23-3.64-5.55-6.18-6.94c-4.74-2.54-10.74-4.03-18.02-4.46C1376.08,174.96,1362.75,174.65,1346.1,174.65z"/>
	<path class="st2" d="M993.94,445.6h24.63c8.64,0,14.83-0.7,18.58-2.1c3.92-1.49,6.81-4.5,8.64-9.04c0.96-2.45,1.44-6.69,1.44-12.71
		c0-10.22-2.53-16.99-7.59-20.31c-2.8-1.75-6.24-2.84-10.34-3.28c-1.65-0.17-5.24-0.26-10.73-0.26H885.14v-43.68h137.09
		c14.04,0,23.68,0.22,28.92,0.65c13.17,1.14,23.25,4.02,30.23,8.65c9.94,6.81,16,16.89,18.19,30.25c1.22,7.51,1.83,16.19,1.83,26.07
		c0,19.39-2.01,33.66-6.02,42.82c-5.15,11.62-13.39,19.13-24.73,22.53c-4.79,1.45-11.61,2.48-20.46,3.1l51.21,44.64h-57.04
		L993.94,489V445.6z"/>
	<polygon class="st2" points="699.92,532.94 699.92,398.44 695.47,398.44 595.53,398.44 595.53,354.23 858.7,354.23 858.7,398.44 
		763.78,398.44 754.31,398.44 754.31,532.94 	"/>
	<path class="st1" d="M786.33,312.52h-54.66v-77.89v-16.18v-2.37l0-1.34c0-12.29-1.23-21.26-3.68-26.93
		c-2.36-5.44-6.99-8.99-13.9-10.65c-7.61-1.84-32.25-2.32-40.82-1.45c-7.95,0.7-13.46,3.03-16.52,6.97
		c-3.49,4.29-5.5,10.21-6.03,17.75c-0.35,4.04-0.52,8.81-0.52,14.33v15.39v82.36h-54.67v-94.07c0-18.78,0.57-31.98,1.71-39.62
		c2.19-14.04,8.01-24.88,17.47-32.51c8.15-6.76,19.15-11.15,32.98-13.16c6.57-1.05,69.47-1.31,77.26-0.79
		c14.04,0.98,25.52,3.74,34.42,8.28c6.81-3.61,14.96-6.11,24.45-7.49c6.57-1.05,76.21-1.31,84.01-0.79
		c22.6,1.58,38.54,7.76,47.83,18.56c6.66,7.72,10.78,19,12.36,33.83c0.79,6.84,1.18,17.24,1.18,31.19v96.57h-54.67v-77.89v-18.55
		c0.09-12.97-1.14-22.4-3.68-28.27c-2.36-5.44-6.99-8.99-13.89-10.65c-7.61-1.84-39-2.32-47.56-1.45
		c-7.96,0.7-13.47,3.03-16.52,6.97c-3.5,4.29-5.51,10.21-6.03,17.75c-0.35,4.04-0.53,8.81-0.53,14.33v1.18v14.2V312.52z"/>
	<path class="st1" d="M1737.01,175.33c1.88-10.64,6.56-19.83,14.02-27.55c6.39-6.58,14.22-10.79,23.5-12.64
		c8.57-1.75,21.04-2.63,37.42-2.63h155.17v42.81h-139.13H1737.01z M1789.58,204.91h177.54v35.57h-177.15
		c0.5,4.09,1.19,7.53,2.08,10.33c2.36,7.64,7.3,12.56,14.82,14.75c4.9,1.41,11.63,2.11,20.2,2.11h140.06v44.42h-148.07
		c-15.93,0-29.28-0.96-40.05-2.89c-16.55-2.9-28.45-10.83-35.71-23.81c-3.42-6.23-5.74-14.04-6.96-23.42
		c-1.49-11.41-2.23-24.65-2.23-39.74c0-6.14,0.1-11.92,0.3-17.33H1789.58z"/>
	<polygon class="st4" points="1277.63,354.23 1372.88,532.94 1312.96,532.94 1242.43,397.96 1170.33,532.94 1109.75,532.94 
		1208.67,354.23 	"/>
	<rect x="885.14" y="398.02" class="st2" width="54.04" height="134.92"/>
	<polygon class="st1" points="1196.51,483.94 1287.36,483.94 1242.28,562.07 	"/>
</g>
</svg>
