<?xml version="1.0" encoding="UTF-8"?>
<svg id="Layer_2" data-name="Layer 2" xmlns="http://www.w3.org/2000/svg" viewBox="0 0 882.29 143.77">
  <defs>
    <style>
      .cls-1 {
        fill: #000f4c;
      }

      .cls-2 {
        fill: #0086ff;
      }
    </style>
  </defs>
  <g id="Layer_1-2" data-name="Layer 1">
    <g>
      <g>
        <path class="cls-2" d="M71.89,0C32.18,0,0,32.2,0,71.89s32.18,71.89,71.89,71.89,71.89-32.18,71.89-71.89S111.59,0,71.89,0ZM15.69,71.89c0-6.29,1.05-12.34,2.96-17.99l71.22,71.22c-5.65,1.91-11.69,2.96-17.98,2.96-31.04,0-56.2-25.16-56.2-56.2ZM98.16,121.57V57.4c0-6.21-5.03-11.24-11.24-11.24H21.93c9.34-18.09,28.2-30.45,49.96-30.45,31.03,0,56.2,25.15,56.2,56.18,0,21.54-12.13,40.25-29.93,49.68Z"/>
        <g>
          <polygon class="cls-1" points="187.43 130.64 210.34 130.64 210.34 85 253.66 85 253.66 63.42 210.34 63.42 210.34 37.7 260.3 37.7 260.3 16.12 187.43 16.12 187.43 130.64"/>
          <rect class="cls-1" x="270.02" y="16.12" width="21.58" height="114.52"/>
          <path class="cls-1" d="M349.76,44c-25.89,0-45.48,19.09-45.48,44.31s19.59,44.31,45.81,44.31c20.59,0,37.35-11.44,43.82-28.21h-23.4c-3.82,5.47-11.13,9.46-19.92,9.46-11.62,0-20.42-7.14-23.24-18.09h67.22c.49-2.15.65-4.82.65-7.13,0-25.56-19.58-44.65-45.47-44.65ZM327.51,80.02c2.99-10.45,11.29-17.25,22.25-17.25s19.76,6.97,22.41,17.25h-44.65Z"/>
          <path class="cls-1" d="M447.78,44c-25.89,0-45.47,19.09-45.47,44.31s19.58,44.31,45.81,44.31c20.57,0,37.33-11.44,43.81-28.21h-23.4c-3.82,5.47-11.12,9.46-19.92,9.46-11.62,0-20.41-7.14-23.24-18.09h67.23c.49-2.15.67-4.82.67-7.13,0-25.56-19.59-44.65-45.48-44.65ZM425.53,80.02c2.99-10.45,11.29-17.25,22.25-17.25s19.76,6.97,22.41,17.25h-44.65Z"/>
          <path class="cls-1" d="M526.56,100.27v-29.93l-14.86,7.69c-4.12,2.13-6.7,6.38-6.7,11.02v14.86c0,17.43,10.12,26.72,29.54,26.72h11.62v-19.76h-8.46c-6.98,0-11.13-3.97-11.13-10.61Z"/>
          <polygon class="cls-1" points="526.56 23.42 504.99 23.42 504.99 65.61 535.73 65.61 535.46 65.74 546.15 65.74 546.15 46 526.56 46 526.56 23.42"/>
        </g>
      </g>
      <g>
        <path class="cls-1" d="M559.61,15.85h51.84c16.62,0,29.41,12.13,29.41,28.74,0,11.3-6.31,20.94-14.62,24.92,12.79,3.32,21.6,15.45,21.6,30.07,0,17.78-13.46,30.9-31.57,30.9h-56.66V15.85ZM574.39,29.64v34.89h33.56c9.3,0,17.28-7.48,17.28-17.45s-7.48-17.44-17.28-17.44h-33.56ZM574.39,77.66v39.05h38.38c11.13,0,19.44-8.47,19.44-19.61s-8.31-19.44-19.44-19.44h-38.38Z"/>
        <path class="cls-1" d="M656.48,88.13c0-25.25,19.44-44.36,45.19-44.36s45.03,19.11,45.03,44.36-19.44,44.36-45.03,44.36-45.19-19.11-45.19-44.36ZM731.91,88.13c0-17.45-12.96-30.57-30.24-30.57s-30.41,13.13-30.41,30.57,12.96,30.57,30.41,30.57,30.24-13.13,30.24-30.57Z"/>
        <path class="cls-1" d="M762.49,10.86h14.29v119.63h-14.29V10.86Z"/>
        <path class="cls-1" d="M792.73,88.13c0-25.25,18.11-44.36,42.37-44.36,14.12,0,25.75,6.65,32.9,17.28V10.86h14.29v119.63h-14.29v-15.29c-7.14,10.63-18.78,17.28-32.9,17.28-24.26,0-42.37-19.11-42.37-44.36ZM868,88.13c0-17.45-12.96-30.57-30.24-30.57s-30.41,13.13-30.41,30.57,12.96,30.57,30.41,30.57,30.24-13.13,30.24-30.57Z"/>
      </g>
    </g>
  </g>
</svg>